<?xml version="1.0" encoding="utf-8"?>
<!-- Generator: Adobe Illustrator 24.2.3, SVG Export Plug-In . SVG Version: 6.00 Build 0)  -->
<svg version="1.1" id="Layer_1" xmlns="http://www.w3.org/2000/svg" xmlns:xlink="http://www.w3.org/1999/xlink" x="0px" y="0px"
	 viewBox="0 0 155.1 154.4" style="enable-background:new 0 0 155.1 154.4;" xml:space="preserve">
<style type="text/css">
	.st0{fill:#663398;}
	.st1{fill:#0070C0;}
</style>
<image style="overflow:visible;" width="1000" height="1080" xlink:href="AB334A1C.jpg"  transform="matrix(1 0 0 1 -9582.4707 -6934.7954)">
</image>
<g>
	<path class="st0" d="M-1536.5,192.7c-17.9-32.5-34.7-60.2-48.2-89.4c-3.7-7.9-0.3-21.8,4.4-30.5c36.4-67.9,73.8-135.3,113.1-206.7
		c-70.7,0-137.7,0-212.9,0c22.1-38.8,40.7-72.3,60.5-104.9c2.4-4,11.6-5.5,17.7-5.5c163.2-0.2,326.5-0.1,489.7,0.1
		c2.6,0,5.1,1.4,11.5,3.2c-19.1,33.2-36.6,65.6-56.4,96.5c-3.7,5.8-16.2,8.2-24.7,8.4c-45.8,0.8-91.7,1.5-137.4-0.1
		c-20.9-0.8-32.4,5.8-42.6,24.2c-50.2,89.9-101.9,179-153.1,268.4C-1521.1,167-1527.5,177.6-1536.5,192.7z"/>
	<g>
		<g>
			<path class="st0" d="M-1635.7,312.4c-2.2,10.7-4.8,21.7-7.7,33l-12.8,51.3h-20.9l-36.4-114.5h22.3l13.8,45.6
				c4.2,14.3,7.5,27.3,10.1,38.8h0.5c2.5-12.4,5.4-25.2,8.7-38.2l11.8-46.2h21.6l11.8,46.2c3.3,12.9,6.2,25.7,8.7,38.2h0.5
				c3.1-13.7,6.5-26.6,10.1-38.8l13.8-45.6h22.3l-36.4,114.5h-20.9l-12.8-51.3c-2.9-11.6-5.5-22.6-7.7-33H-1635.7z"/>
			<path class="st0" d="M-1508.3,382.5c3.9,0,8-0.4,12.3-1.2c4.3-0.8,8.6-1.9,13-3.4v16.2c-2.6,1.1-6.6,2.2-12.1,3.3
				c-5.4,1-11,1.5-16.9,1.5c-5.9,0-11.5-0.8-16.7-2.3c-5.3-1.5-9.9-3.9-13.8-7.3c-3.9-3.4-7.1-7.7-9.4-13.1
				c-2.3-5.4-3.5-11.9-3.5-19.5c0-7.5,1.1-14.1,3.3-19.8c2.2-5.6,5.1-10.3,8.7-14c3.7-3.7,7.8-6.5,12.5-8.3
				c4.7-1.9,9.6-2.8,14.6-2.8c5.2,0,10.1,0.8,14.5,2.4c4.4,1.6,8.2,4.1,11.5,7.5c3.2,3.4,5.7,7.8,7.5,13.2
				c1.8,5.4,2.7,11.8,2.7,19.1c-0.1,2.9-0.1,5.3-0.3,7.3h-54.3c0.3,3.8,1.1,7.1,2.6,9.8c1.4,2.7,3.3,4.9,5.6,6.6
				c2.3,1.7,5,2.9,8.1,3.7C-1515.3,382.2-1511.9,382.5-1508.3,382.5z M-1516.5,327.6c-2.6,0-4.8,0.5-6.8,1.4s-3.7,2.2-5.2,3.8
				c-1.5,1.6-2.6,3.5-3.5,5.7c-0.9,2.2-1.4,4.5-1.7,6.9h32.6c0-2.5-0.3-4.8-1-6.9c-0.7-2.2-1.6-4.1-2.9-5.7
				c-1.3-1.6-2.9-2.9-4.8-3.8C-1511.7,328.1-1513.9,327.6-1516.5,327.6z"/>
			<path class="st0" d="M-1424.5,372.7c0-1.8-0.5-3.2-1.5-4.4c-1-1.1-2.3-2.1-4-2.9c-1.7-0.8-3.6-1.4-5.7-2
				c-2.1-0.6-4.4-1.1-6.7-1.7c-3-0.8-5.8-1.7-8.6-2.8c-2.7-1.1-5.1-2.4-7.2-4.1c-2.1-1.7-3.7-3.9-5-6.5c-1.2-2.6-1.8-5.8-1.8-9.5
				c0-4.6,0.8-8.6,2.5-12c1.7-3.4,3.9-6.2,6.7-8.4c2.8-2.2,6.1-3.9,9.8-5c3.7-1.1,7.7-1.6,11.9-1.6c5.1,0,9.8,0.4,14.3,1.2
				c4.4,0.8,8.5,1.9,12.1,3.2v16.5c-1.9-0.6-3.9-1.2-5.9-1.8c-2.1-0.5-4.2-1-6.3-1.4c-2.1-0.4-4.3-0.7-6.4-1c-2.1-0.3-4.1-0.4-6-0.4
				c-2.4,0-4.4,0.2-6.1,0.7c-1.7,0.5-3,1.1-4,1.8c-1,0.8-1.8,1.7-2.2,2.7c-0.5,1-0.7,2-0.7,3.1c0,1.9,0.5,3.4,1.5,4.6
				c1,1.2,2.4,2.2,4.2,2.9c1.8,0.7,3.6,1.4,5.6,1.8c1.9,0.5,3.8,1,5.6,1.4c2.9,0.7,5.7,1.5,8.6,2.5c2.9,1,5.4,2.3,7.7,4.1
				c2.3,1.7,4.1,4,5.6,6.8c1.5,2.8,2.2,6.3,2.2,10.6c0,4.7-0.9,8.8-2.7,12.2c-1.8,3.5-4.2,6.4-7.4,8.7c-3.2,2.3-7,4-11.4,5.1
				c-4.4,1.1-9.3,1.7-14.6,1.7c-5.2,0-10-0.4-14.2-1.2c-4.2-0.8-7.7-1.9-10.4-3.1v-16.3c4.4,1.7,8.6,2.8,12.3,3.4
				c3.8,0.6,7.3,0.9,10.5,0.9c2.5,0,4.8-0.2,7-0.6c2.2-0.4,4-1,5.6-1.8c1.6-0.8,2.8-1.8,3.7-3
				C-1424.9,375.9-1424.5,374.4-1424.5,372.7z"/>
		</g>
	</g>
	<g>
		<g>
			<g>
				<path class="st1" d="M-1353.1,193.5c-18.5-33.8-34.7-61.8-49.1-90.6c-3.1-6.2-2.3-16.9,1-23.3c26.3-49.7,53.1-99.2,81.2-147.9
					c4.2-7.2,15.6-13.9,24-14.3c31.3-1.7,62.8-0.7,100.9-0.7C-1248.2,9.9-1299.2,99.3-1353.1,193.5z"/>
				<path class="st1" d="M-1618.4,22c-21.5-38.5-39.8-71.2-59.7-106.9c41.1,0,77.9,0,121.2,0C-1578-48.4-1597-15.2-1618.4,22z"/>
			</g>
		</g>
		<g>
			<path class="st1" d="M-1342.4,396.7h-13.9V294.8h-38.2v-12.6h90.4v12.6h-38.2V396.7z"/>
			<path class="st1" d="M-1260.5,387.3c4.4,0,8.4-0.4,12-1.1c3.6-0.7,7.2-1.7,10.8-3v11c-2.9,1.4-6.5,2.6-10.8,3.4
				c-4.3,0.8-8.9,1.2-13.8,1.2c-5.8,0-11.3-0.7-16.4-2.2c-5.1-1.5-9.5-3.9-13.3-7.2c-3.7-3.3-6.7-7.6-8.8-13
				c-2.1-5.3-3.2-11.8-3.2-19.3c0-7.4,1-13.8,3.1-19.3c2-5.4,4.8-10,8.2-13.6c3.4-3.7,7.3-6.4,11.8-8.2c4.4-1.8,9.1-2.7,13.9-2.7
				c4.6,0,8.8,0.8,12.8,2.3c4,1.5,7.4,3.9,10.3,7.1c2.9,3.3,5.2,7.4,6.9,12.6c1.7,5.1,2.5,11.3,2.5,18.5c0,0.7,0,1.3,0,1.8
				c0,0.5,0,1.6-0.1,3.3h-56.1c0,5.2,0.8,9.6,2.4,13.2c1.6,3.6,3.7,6.6,6.4,8.8c2.7,2.3,5.9,3.9,9.5,4.9
				C-1268.6,386.8-1264.7,387.3-1260.5,387.3z M-1267.5,324.7c-3.1,0-5.9,0.6-8.5,1.8c-2.6,1.2-4.9,2.8-6.9,4.9
				c-2,2.1-3.6,4.5-4.8,7.2c-1.2,2.8-2,5.7-2.3,8.9h41.6c0-3.2-0.4-6.2-1.3-8.9c-0.8-2.8-2.1-5.2-3.7-7.2c-1.6-2.1-3.6-3.7-6-4.8
				C-1261.6,325.3-1264.3,324.7-1267.5,324.7z"/>
			<path class="st1" d="M-1176.9,313.3c3.9,0,7.7,0.4,11.3,1.2c3.6,0.8,6.7,2,9.2,3.5v11c-3.6-1.4-6.9-2.4-9.9-3.1
				c-3-0.7-6.1-1-9.2-1c-3.3,0-6.6,0.5-9.8,1.6c-3.3,1.1-6.2,2.9-8.7,5.3c-2.6,2.5-4.6,5.8-6.2,9.8c-1.6,4.1-2.4,9.1-2.4,15.2
				c0,4.4,0.6,8.4,1.8,12.1c1.2,3.7,2.9,6.9,5.2,9.6c2.3,2.7,5.2,4.8,8.7,6.3c3.5,1.5,7.5,2.3,12.1,2.3c3.3,0,6.6-0.4,10-1.1
				c3.4-0.7,6.6-1.7,9.8-3v11c-1,0.6-2.2,1.1-3.8,1.7c-1.6,0.6-3.3,1.1-5.2,1.5c-1.9,0.4-3.9,0.8-6,1c-2.1,0.3-4.2,0.4-6.3,0.4
				c-5.5,0-10.7-0.8-15.5-2.5c-4.9-1.7-9.1-4.2-12.8-7.6c-3.7-3.4-6.5-7.8-8.6-13c-2.1-5.2-3.2-11.5-3.2-18.7
				c0-5.4,0.6-10.2,1.7-14.5s2.6-8,4.6-11.3c1.9-3.3,4.2-6,6.8-8.3c2.6-2.3,5.4-4.1,8.3-5.6c2.9-1.5,6-2.5,9.1-3.2
				C-1183,313.7-1179.9,313.3-1176.9,313.3z"/>
			<path class="st1" d="M-1120.9,326.6h0.3c1.5-1.9,3.1-3.6,5-5.3c1.8-1.6,3.9-3,6.1-4.2c2.2-1.2,4.6-2.1,7.2-2.8
				c2.6-0.7,5.3-1,8.3-1c3.1,0,6.2,0.4,9.2,1.2c3.1,0.8,5.9,2.3,8.6,4.4c2.6,2.1,4.8,5,6.4,8.8c1.7,3.8,2.5,8.6,2.5,14.5v54.4h-13.3
				v-52.3c0-6.6-1.2-11.5-3.7-14.8c-2.5-3.3-6.5-5-12.2-5c-4.7,0-9.1,1.3-13.3,3.8c-4.2,2.5-7.9,6-11,10.5v57.8h-13.3V272.9h13.3
				V326.6z"/>
		</g>
	</g>
</g>
<g>
	<path class="st0" d="M42.6,104.9c-4.3-7.8-8.3-14.4-11.5-21.4c-0.9-1.9-0.1-5.2,1-7.3c8.7-16.3,17.7-32.4,27.1-49.5
		c-16.9,0-33,0-51,0c5.3-9.3,9.7-17.3,14.5-25.1c0.6-1,2.8-1.3,4.2-1.3c39.1-0.1,78.1,0,117.2,0c0.6,0,1.2,0.3,2.8,0.8
		c-4.6,7.9-8.8,15.7-13.5,23.1c-0.9,1.4-3.9,2-5.9,2c-11,0.2-21.9,0.4-32.9,0c-5-0.2-7.7,1.4-10.2,5.8C72.4,53.4,60,74.7,47.7,96.1
		C46.3,98.7,44.7,101.2,42.6,104.9z"/>
	<g>
		<g>
			<path class="st0" d="M18.8,133.5c-0.5,2.6-1.1,5.2-1.8,7.9l-3.1,12.3h-5l-8.7-27.4h5.3l3.3,10.9c1,3.4,1.8,6.5,2.4,9.3h0.1
				c0.6-3,1.3-6,2.1-9.2l2.8-11.1h5.2l2.8,11.1c0.8,3.1,1.5,6.2,2.1,9.2h0.1c0.8-3.3,1.6-6.4,2.4-9.3l3.3-10.9h5.3l-8.7,27.4h-5
				l-3.1-12.3c-0.7-2.8-1.3-5.4-1.8-7.9H18.8z"/>
			<path class="st0" d="M49.3,150.3c0.9,0,1.9-0.1,2.9-0.3c1-0.2,2.1-0.5,3.1-0.8v3.9c-0.6,0.3-1.6,0.5-2.9,0.8
				c-1.3,0.2-2.6,0.4-4,0.4c-1.4,0-2.7-0.2-4-0.5c-1.3-0.4-2.4-0.9-3.3-1.8c-0.9-0.8-1.7-1.8-2.2-3.1c-0.6-1.3-0.8-2.8-0.8-4.7
				c0-1.8,0.3-3.4,0.8-4.7c0.5-1.4,1.2-2.5,2.1-3.4c0.9-0.9,1.9-1.6,3-2c1.1-0.4,2.3-0.7,3.5-0.7c1.3,0,2.4,0.2,3.5,0.6
				c1.1,0.4,2,1,2.7,1.8c0.8,0.8,1.4,1.9,1.8,3.2c0.4,1.3,0.6,2.8,0.6,4.6c0,0.7,0,1.3-0.1,1.7H43c0.1,0.9,0.3,1.7,0.6,2.3
				c0.3,0.6,0.8,1.2,1.3,1.6c0.6,0.4,1.2,0.7,1.9,0.9C47.7,150.2,48.5,150.3,49.3,150.3z M47.4,137.1c-0.6,0-1.2,0.1-1.6,0.3
				c-0.5,0.2-0.9,0.5-1.2,0.9c-0.3,0.4-0.6,0.8-0.8,1.4c-0.2,0.5-0.3,1.1-0.4,1.7h7.8c0-0.6-0.1-1.1-0.2-1.7c-0.2-0.5-0.4-1-0.7-1.4
				c-0.3-0.4-0.7-0.7-1.1-0.9C48.5,137.3,48,137.1,47.4,137.1z"/>
			<path class="st0" d="M69.4,147.9c0-0.4-0.1-0.8-0.4-1c-0.2-0.3-0.6-0.5-1-0.7c-0.4-0.2-0.9-0.3-1.4-0.5c-0.5-0.1-1-0.3-1.6-0.4
				c-0.7-0.2-1.4-0.4-2-0.7c-0.7-0.3-1.2-0.6-1.7-1c-0.5-0.4-0.9-0.9-1.2-1.5c-0.3-0.6-0.4-1.4-0.4-2.3c0-1.1,0.2-2.1,0.6-2.9
				c0.4-0.8,0.9-1.5,1.6-2c0.7-0.5,1.5-0.9,2.4-1.2c0.9-0.3,1.8-0.4,2.8-0.4c1.2,0,2.4,0.1,3.4,0.3c1.1,0.2,2,0.5,2.9,0.8v4
				c-0.5-0.1-0.9-0.3-1.4-0.4c-0.5-0.1-1-0.2-1.5-0.3c-0.5-0.1-1-0.2-1.5-0.2c-0.5-0.1-1-0.1-1.4-0.1c-0.6,0-1.1,0.1-1.5,0.2
				c-0.4,0.1-0.7,0.3-1,0.4c-0.2,0.2-0.4,0.4-0.5,0.6c-0.1,0.2-0.2,0.5-0.2,0.7c0,0.5,0.1,0.8,0.4,1.1c0.2,0.3,0.6,0.5,1,0.7
				c0.4,0.2,0.9,0.3,1.3,0.4c0.5,0.1,0.9,0.2,1.4,0.3c0.7,0.2,1.4,0.4,2,0.6c0.7,0.2,1.3,0.6,1.8,1c0.5,0.4,1,1,1.3,1.6
				c0.3,0.7,0.5,1.5,0.5,2.5c0,1.1-0.2,2.1-0.6,2.9c-0.4,0.8-1,1.5-1.8,2.1c-0.8,0.6-1.7,1-2.7,1.2c-1.1,0.3-2.2,0.4-3.5,0.4
				c-1.3,0-2.4-0.1-3.4-0.3c-1-0.2-1.8-0.4-2.5-0.7v-3.9c1.1,0.4,2,0.7,2.9,0.8c0.9,0.1,1.7,0.2,2.5,0.2c0.6,0,1.2,0,1.7-0.1
				c0.5-0.1,1-0.2,1.3-0.4c0.4-0.2,0.7-0.4,0.9-0.7C69.3,148.7,69.4,148.3,69.4,147.9z"/>
		</g>
	</g>
	<g>
		<g>
			<g>
				<path class="st1" d="M86.5,105C82,97,78.2,90.3,74.7,83.4c-0.7-1.5-0.6-4.1,0.3-5.6C81.3,65.9,87.7,54,94.4,42.4
					c1-1.7,3.7-3.3,5.7-3.4c7.5-0.4,15-0.2,24.2-0.2C111.6,61.1,99.4,82.5,86.5,105z"/>
				<path class="st1" d="M23,64c-5.1-9.2-9.5-17.1-14.3-25.6c9.8,0,18.6,0,29,0C32.7,47.1,28.1,55.1,23,64z"/>
			</g>
		</g>
		<g>
			<path class="st1" d="M89,153.7h-3.3v-24.4h-9.2v-3h21.6v3H89V153.7z"/>
			<path class="st1" d="M108.6,151.4c1.1,0,2-0.1,2.9-0.3c0.9-0.2,1.7-0.4,2.6-0.7v2.6c-0.7,0.3-1.6,0.6-2.6,0.8
				c-1,0.2-2.1,0.3-3.3,0.3c-1.4,0-2.7-0.2-3.9-0.5c-1.2-0.4-2.3-0.9-3.2-1.7c-0.9-0.8-1.6-1.8-2.1-3.1c-0.5-1.3-0.8-2.8-0.8-4.6
				c0-1.8,0.2-3.3,0.7-4.6c0.5-1.3,1.1-2.4,2-3.3c0.8-0.9,1.8-1.5,2.8-2s2.2-0.7,3.3-0.7c1.1,0,2.1,0.2,3.1,0.5
				c0.9,0.4,1.8,0.9,2.5,1.7c0.7,0.8,1.2,1.8,1.6,3c0.4,1.2,0.6,2.7,0.6,4.4c0,0.2,0,0.3,0,0.4c0,0.1,0,0.4,0,0.8h-13.4
				c0,1.2,0.2,2.3,0.6,3.2c0.4,0.9,0.9,1.6,1.5,2.1c0.6,0.5,1.4,0.9,2.3,1.2C106.7,151.3,107.6,151.4,108.6,151.4z M107,136.4
				c-0.7,0-1.4,0.1-2,0.4c-0.6,0.3-1.2,0.7-1.6,1.2c-0.5,0.5-0.9,1.1-1.1,1.7c-0.3,0.7-0.5,1.4-0.5,2.1h10c0-0.8-0.1-1.5-0.3-2.1
				c-0.2-0.7-0.5-1.2-0.9-1.7c-0.4-0.5-0.9-0.9-1.4-1.2S107.7,136.4,107,136.4z"/>
			<path class="st1" d="M128.6,133.7c0.9,0,1.8,0.1,2.7,0.3c0.9,0.2,1.6,0.5,2.2,0.8v2.6c-0.9-0.3-1.7-0.6-2.4-0.7
				c-0.7-0.2-1.5-0.2-2.2-0.2c-0.8,0-1.6,0.1-2.4,0.4c-0.8,0.3-1.5,0.7-2.1,1.3c-0.6,0.6-1.1,1.4-1.5,2.4c-0.4,1-0.6,2.2-0.6,3.6
				c0,1.1,0.1,2,0.4,2.9c0.3,0.9,0.7,1.7,1.2,2.3c0.6,0.6,1.2,1.2,2.1,1.5c0.8,0.4,1.8,0.5,2.9,0.5c0.8,0,1.6-0.1,2.4-0.3
				c0.8-0.2,1.6-0.4,2.4-0.7v2.6c-0.2,0.1-0.5,0.3-0.9,0.4c-0.4,0.1-0.8,0.3-1.2,0.4c-0.5,0.1-0.9,0.2-1.4,0.2
				c-0.5,0.1-1,0.1-1.5,0.1c-1.3,0-2.5-0.2-3.7-0.6c-1.2-0.4-2.2-1-3.1-1.8c-0.9-0.8-1.6-1.9-2.1-3.1c-0.5-1.3-0.8-2.7-0.8-4.5
				c0-1.3,0.1-2.4,0.4-3.5s0.6-1.9,1.1-2.7c0.5-0.8,1-1.4,1.6-2c0.6-0.5,1.3-1,2-1.3c0.7-0.3,1.4-0.6,2.2-0.8
				C127.2,133.8,127.9,133.7,128.6,133.7z"/>
			<path class="st1" d="M142.1,136.9L142.1,136.9c0.4-0.5,0.8-0.9,1.2-1.3c0.4-0.4,0.9-0.7,1.5-1c0.5-0.3,1.1-0.5,1.7-0.7
				c0.6-0.2,1.3-0.2,2-0.2c0.7,0,1.5,0.1,2.2,0.3c0.7,0.2,1.4,0.5,2,1.1c0.6,0.5,1.1,1.2,1.5,2.1c0.4,0.9,0.6,2.1,0.6,3.5v13h-3.2
				v-12.5c0-1.6-0.3-2.8-0.9-3.5c-0.6-0.8-1.6-1.2-2.9-1.2c-1.1,0-2.2,0.3-3.2,0.9c-1,0.6-1.9,1.4-2.6,2.5v13.8h-3.2V124h3.2V136.9z
				"/>
		</g>
	</g>
</g>
<rect x="-1713.5" y="-563.8" class="st1" width="96" height="96"/>
<rect x="-1617.5" y="-563.8" class="st0" width="96" height="96"/>
</svg>
